######## ######## ######## ##          ######## ########  ######## ######## 
##       ##       ##       ##          ##       ##     ## ##       ##       
##       ##       ##       ##          ##       ##     ## ##       ##       
######   ######   ######   ##          ######   ########  ######   ######   
##       ##       ##       ##          ##       ##   ##   ##       ##       
##       ##       ##       ##          ##       ##    ##  ##       ##       
##       ######## ######## ########    ##       ##     ## ######## ######## 


Genre:Action | Sci-Fi | Thriller
Language:English
IMDb: 
http://www.imdb.com/title/tt1217613/
Source:D.TS.ELEKTRI4KA/Audio:Imagine Thx.

Format : AVI
Format/Info : Audio Video Interleave
File size : 822 MiB
Duration : 1h 50mn
Overall bit rate : 1 039 Kbps

Video
Codec ID/Hint : XviD
Duration : 1h 50mn
Bit rate : 902 Kbps
Width : 720 pixels
Height : 336 pixels
Display aspect ratio : 2.2:1
Frame rate : 25.000 fps
Color space : YUV
Chroma subsampling : 4:2:0
Bit depth : 8 bits
Scan type : Progressive
Bits/(Pixel*Frame) : 0.149
Stream size : 713 MiB (87%)
Writing library : XviD 1.2.1

Audio
ID : 1
Format : MPEG Audio
Format version : Version 1
Format profile : Layer 3
Codec ID : 55
Codec ID/Hint : MP3
Duration : 1h 50mn
Bit rate mode : Constant
Bit rate : 128 Kbps
Channel(s) : 2 channels
Sampling rate : 44.1 KHz
Stream size : 101 MiB (12%)
Alignment : Split accross interleaves
Interleave, duration : 40 ms (1.00 video frame)
Interleave, preload duration : 500 ms


Plot:
A Marine platoon faces off against an alien invasion in Los Angeles.


Greets:

INK,CRYS,IMAGINE,LKRG,FXG,3Li,FLAWL3SS,TA,iLLUSiON,ViSiON,DTRG SAFCuk009,LU,TheFalcon007,MYSTiC,PrisM,Noir,WBZ,LAP,Rx,Kingdom,SAFCuk009+Fabreezy,HDLiTE,TWiZTED,ExtraTorrentRG.ELEKTRI4KA,MAGNAT,CM8
And to all the other p2p grps past and present






================================== 
http://thepiratebay.org/user/hiest
==================================






Screen Shots:
 
http://www.postimg.com/31000/photo-30464.jpg
 
http://www.postimg.com/31000/photo-30461.jpg
 
http://www.postimg.com/31000/photo-30462.jpg
 
http://www.postimg.com/31000/photo-30463.jpg


######## ######## ######## ##          ######## ########  ######## ######## 
##       ##       ##       ##          ##       ##     ## ##       ##       
##       ##       ##       ##          ##       ##     ## ##       ##       
######   ######   ######   ##          ######   ########  ######   ######   
##       ##       ##       ##          ##       ##   ##   ##       ##       
##       ##       ##       ##          ##       ##    ##  ##       ##       
##       ######## ######## ########    ##       ##     ## ######## ######## 
